<?xml version="1.0" encoding="UTF-8"?>
<svg id="_图层_2" data-name="图层 2" xmlns="http://www.w3.org/2000/svg" viewBox="0 0 752 648">
  <defs>
    <style>
      .cls-1, .cls-2 {
        stroke-width: 0px;
      }

      .cls-2 {
        fill: #f67714;
      }
    </style>
  </defs>
  <g id="_图层_1-2" data-name="图层 1">
    <polygon class="cls-1" points="70 407 70 333 116 333 116 266 70 266 70 203 116 203 116 136 70 136 0 136 0 203 0 266 0 333 0 407 0 474 70 474 121 474 121 407 70 407"/>
    <polygon class="cls-1" points="701 407 701 333 747 333 747 266 701 266 701 203 747 203 747 136 701 136 631 136 631 203 631 266 631 333 631 407 631 474 701 474 752 474 752 407 701 407"/>
    <path class="cls-1" d="m300,403.26v-228.8c-10.45-34.54-56.83-39.55-91-38.29v-.17h-70v338h65v.33c64.96,0,80.78-3.48,92.17-33.71,6.83-14.44,3.83-37.36,3.83-37.36Zm-68-3.02c0,9.26-7.5,16.76-16.76,16.76h-6.24v-225h6.24c9.26,0,16.76,7.5,16.76,16.76v191.48Z"/>
    <path class="cls-1" d="m609,258v-50c0-22.64-9.18-43.14-24.02-57.98-14.84-14.84-35.34-24.02-57.98-24.02-45.29,0-82,36.71-82,82v190c0,45.29,36.71,82,82,82,10.89,0,20.76-2.73,28-10,3.42-3.44,5-9,7-15,1,9,2.9,19,2.9,19h44.1v-184h-85v53h14v68c0,6.63-5.37,12-12,12s-12-5.37-12-12v-216c0-6.63,5.37-12,12-12,3.32,0,6.32,1.34,8.49,3.51,2.17,2.17,3.51,5.17,3.51,8.49v63h71Z"/>
    <polygon class="cls-2" points="397.84 323.74 543.96 0 483.58 0 367.66 256.85 251.73 0 191.35 0 337.47 323.74 191.11 648 251.49 648 367.66 390.62 483.82 648 544.2 648 397.84 323.74"/>
  </g>
</svg>